<?xml version="1.0" encoding="UTF-8" standalone="no"?>
<svg xmlns:dc="http://purl.org/dc/elements/1.1/" xmlns:cc="http://creativecommons.org/ns#" xmlns:rdf="http://www.w3.org/1999/02/22-rdf-syntax-ns#" xmlns:svg="http://www.w3.org/2000/svg" xmlns="http://www.w3.org/2000/svg" style="fill:none" version="1.1" id="svg2" viewBox="0 0 335.9375 303.82501" height="303.82501" width="335.9375">
  <metadata id="metadata296"></metadata>
  <g transform="translate(-56.062489,-243.175)" id="g8" clip-path="url(#clip0_0_1)">
    <path style="fill:#e8e8e8" id="path10" d="m 56.6756,492.836 c 2.9332,-1.436 4.1784,-5.247 7.3606,-6.241 3.2652,-1.021 6.8901,0.994 9.8786,-1.215 1.3005,-0.966 2.269,-2.568 3.8463,-3.148 1.3836,-0.497 2.8225,0.055 4.1507,0.47 1.1345,0.359 2.269,0.69 3.4035,1.049 4.5658,1.408 9.1039,2.789 13.6696,4.197 5.1741,1.574 10.3211,3.176 15.4961,4.75 0.498,0.166 0.719,-0.635 0.221,-0.801 -9.463,-2.899 -18.8993,-5.799 -28.3628,-8.698 -2.2137,-0.663 -4.5104,-1.685 -6.8071,-1.961 -1.605,-0.193 -2.8778,0.442 -4.0124,1.491 -1.5772,1.464 -2.7671,2.817 -5.0638,2.927 -1.9093,0.111 -3.791,-0.386 -5.7003,-0.082 -3.9293,0.607 -5.1468,4.887 -8.4674,6.517 -0.498,0.276 -0.083,0.994 0.3874,0.745 z"></path>
    <path style="fill:#e8e8e8" id="path12" d="m 106.401,489.357 c 1.964,0.497 3.514,-1.464 5.285,-2.044 2.38,-0.801 4.925,-0.469 7.084,0.773 0.47,0.276 0.885,-0.442 0.415,-0.718 -1.826,-1.077 -3.902,-1.518 -6.005,-1.242 -0.913,0.11 -1.771,0.359 -2.601,0.718 -1.19,0.524 -2.573,2.043 -3.957,1.712 -0.526,-0.138 -0.747,0.663 -0.221,0.801 z"></path>
    <path style="fill:#e8e8e8" id="path14" d="m 127.735,487.286 c -1.854,-1.519 -3.625,-3.148 -5.285,-4.888 -0.775,-0.801 -1.522,-1.657 -2.241,-2.513 -0.415,-0.497 -0.83,-0.994 -1.218,-1.491 -0.277,-0.359 -0.553,-0.718 -0.802,-1.077 -0.443,-0.442 -0.443,-0.994 0.027,-1.602 0.332,0.138 0.858,-0.193 0.581,-0.58 -1.687,-2.264 -2.933,-4.749 -3.735,-7.456 -0.166,0.166 -0.332,0.332 -0.498,0.497 0.913,0.249 1.577,0.718 2.075,1.492 0.277,0.441 0.996,0.055 0.72,-0.415 -4.123,-7.124 -7.499,-14.635 -10.045,-22.45 -0.221,0.138 -0.47,0.276 -0.692,0.414 11.594,11.377 16.852,27.2 26.62,39.931 0.332,0.414 1.051,0 0.719,-0.415 -9.795,-12.785 -15.108,-28.663 -26.758,-40.096 -0.276,-0.276 -0.83,0 -0.692,0.414 2.574,7.898 5.95,15.465 10.128,22.644 0.249,-0.138 0.471,-0.276 0.72,-0.414 -0.637,-0.966 -1.467,-1.602 -2.574,-1.878 -0.304,-0.083 -0.609,0.194 -0.498,0.497 0.83,2.762 2.103,5.33 3.819,7.65 0.193,-0.194 0.387,-0.387 0.581,-0.58 -0.775,-0.359 -1.633,0 -1.827,0.911 -0.249,1.298 1.329,2.734 2.048,3.645 2.463,3.065 5.258,5.854 8.302,8.339 0.359,0.332 0.94,-0.248 0.525,-0.579 z"></path>
    <path style="fill:#e8e8e8" id="path16" d="m 124.83,470.027 c -5.092,-7.594 -9.215,-15.741 -12.259,-24.356 -0.083,0.165 -0.193,0.331 -0.276,0.497 0.941,-0.221 1.743,0.138 2.269,0.966 0.276,0.47 0.941,0.056 0.719,-0.414 -4.289,-9.251 -8.661,-18.888 -8.357,-29.299 -0.249,0.083 -0.525,0.138 -0.774,0.221 7.388,15.188 14.416,30.569 21.057,46.089 0.194,0.441 0.914,0.11 0.748,-0.332 -1.107,-3.314 -2.186,-6.655 -3.293,-9.969 -0.526,-1.629 -1.079,-3.23 -1.605,-4.86 -0.36,-1.077 -1.135,-3.424 0.415,-4.004 -0.166,-0.055 -0.305,-0.138 -0.471,-0.193 1.993,3.893 3.957,7.787 5.95,11.681 0.249,0.469 0.968,0.055 0.719,-0.414 -2.158,-4.225 -3.154,-8.892 -2.961,-13.642 -0.276,0.028 -0.553,0.083 -0.802,0.11 5.756,14.277 12.424,28.195 19.923,41.643 0.249,0.469 0.969,0.055 0.72,-0.414 -7.472,-13.393 -14.113,-27.228 -19.841,-41.449 -0.166,-0.415 -0.802,-0.387 -0.802,0.11 -0.194,4.888 0.858,9.665 3.071,14.056 0.249,-0.138 0.471,-0.276 0.72,-0.414 -1.992,-3.894 -3.957,-7.788 -5.949,-11.681 -0.083,-0.138 -0.305,-0.249 -0.471,-0.194 -2.767,1.022 -0.996,4.971 -0.387,6.821 1.439,4.336 2.85,8.699 4.289,13.034 0.249,-0.11 0.498,-0.221 0.747,-0.331 -6.641,-15.52 -13.67,-30.901 -21.058,-46.089 -0.194,-0.386 -0.775,-0.165 -0.775,0.221 -0.332,10.549 4.123,20.352 8.468,29.713 0.249,-0.138 0.47,-0.276 0.719,-0.414 -0.719,-1.132 -1.881,-1.629 -3.21,-1.353 -0.221,0.055 -0.359,0.304 -0.276,0.497 3.071,8.671 7.222,16.9 12.341,24.549 0.277,0.47 0.996,0.055 0.692,-0.386 z"></path>
    <path style="fill:#e8e8e8" id="path18" d="m 70.1515,523.405 c 9.5742,-4.611 19.6742,-9.306 30.6045,-8.201 5.174,0.524 10.183,2.016 15.33,2.678 2.601,0.332 5.23,0.47 7.831,0.166 2.435,-0.304 4.731,-1.187 7.111,-1.712 3.072,-0.69 5.866,0.028 8.827,0.856 2.435,0.663 4.843,1.215 7.361,0.635 0.525,-0.11 0.304,-0.911 -0.222,-0.801 -5.036,1.188 -9.768,-2.43 -14.859,-1.712 -2.518,0.359 -4.87,1.353 -7.361,1.795 -2.628,0.442 -5.312,0.387 -7.969,0.055 -5.23,-0.607 -10.321,-2.154 -15.579,-2.733 -5.1743,-0.58 -10.2935,0.082 -15.2466,1.518 -5.6449,1.657 -10.9855,4.198 -16.243,6.738 -0.4981,0.221 -0.0553,0.939 0.4151,0.718 z"></path>
    <path style="fill:#e8e8e8" id="path20" d="m 126.324,546.297 c 3.238,-1.38 6.42,-2.899 9.491,-4.611 1.605,-0.911 3.182,-1.85 4.76,-2.844 1.411,-0.912 2.822,-2.21 4.372,-2.872 1.743,-0.718 4.372,0.635 6.115,1.16 1.854,0.579 3.708,1.132 5.534,1.712 3.791,1.159 7.582,2.319 11.346,3.479 0.498,0.166 0.719,-0.635 0.221,-0.801 -4.04,-1.242 -8.108,-2.485 -12.148,-3.728 -1.937,-0.607 -3.874,-1.187 -5.811,-1.795 -1.494,-0.469 -3.376,-1.436 -4.953,-1.049 -1.466,0.359 -2.795,1.629 -4.04,2.458 -1.605,1.049 -3.265,2.071 -4.925,3.037 -3.349,1.906 -6.807,3.618 -10.377,5.109 -0.498,0.221 -0.055,0.939 0.415,0.745 z"></path>
    <path style="fill:#e8e8e8" id="path22" d="m 160.747,547.154 c 2.103,-1.05 4.206,-2.127 6.309,-3.176 1.937,-0.994 4.012,-2.32 6.226,-2.513 2.241,-0.221 3.985,1.243 5.922,2.099 1.632,0.718 3.403,1.132 5.174,1.242 4.151,0.221 8.025,-1.85 12.148,-1.629 3.293,0.193 6.613,2.9 9.851,1.188 0.47,-0.249 0.055,-0.967 -0.415,-0.718 -2.02,1.077 -4.206,0.027 -6.199,-0.608 -1.715,-0.552 -3.376,-0.801 -5.174,-0.607 -4.262,0.441 -8.163,2.236 -12.535,1.215 -3.625,-0.829 -6.392,-3.839 -10.294,-2.707 -1.799,0.525 -3.486,1.519 -5.147,2.348 -2.103,1.049 -4.206,2.126 -6.309,3.175 -0.442,0.221 -0.027,0.939 0.443,0.691 z"></path>
    <path style="fill:#e8e8e8" id="path24" d="m 176.907,541.161 c -1.716,-1.491 -3.265,-3.148 -4.538,-5.053 -0.581,-0.856 -1.107,-1.768 -1.605,-2.679 -0.249,-0.469 -0.47,-0.939 -0.664,-1.408 -0.166,-0.387 -0.332,-0.746 -0.471,-1.132 -0.249,-0.415 -0.138,-0.801 0.333,-1.16 0.249,-0.111 0.498,-0.221 0.747,-0.332 -3.044,-4.473 -4.953,-9.554 -5.59,-14.911 -0.249,0.11 -0.47,0.193 -0.719,0.304 0.498,0.635 0.996,1.27 1.522,1.933 0.304,0.386 0.885,-0.111 0.664,-0.498 -4.815,-8.588 -7.389,-18.253 -7.444,-28.083 -0.249,0.11 -0.47,0.193 -0.719,0.303 1.881,1.519 3.32,3.397 4.206,5.634 0.249,-0.111 0.498,-0.221 0.747,-0.332 -2.159,-4.556 -2.601,-9.692 -1.328,-14.552 -0.277,0 -0.526,0 -0.803,0 5.673,16.209 11.318,32.391 16.99,48.601 0.166,0.497 0.969,0.276 0.803,-0.221 -2.85,-8.312 -4.262,-17.038 -4.179,-25.847 -0.249,0.11 -0.47,0.193 -0.719,0.304 1.688,1.518 2.739,3.424 3.127,5.661 0.083,0.469 0.83,0.359 0.802,-0.111 -0.083,-1.684 -0.193,-3.396 -0.276,-5.081 -0.222,0.111 -0.416,0.249 -0.637,0.359 1.467,0.939 1.743,3.424 2.214,4.971 0.498,1.657 0.996,3.313 1.522,4.998 1.024,3.424 2.075,6.821 3.099,10.245 2.075,6.821 4.151,13.669 6.226,20.49 0.166,0.497 0.968,0.303 0.802,-0.221 -2.241,-7.346 -4.455,-14.719 -6.696,-22.064 -1.079,-3.59 -2.186,-7.18 -3.265,-10.77 -0.554,-1.85 -1.107,-3.672 -1.661,-5.523 -0.359,-1.132 -0.774,-2.154 -1.798,-2.816 -0.249,-0.166 -0.637,0.055 -0.637,0.359 0.083,1.684 0.194,3.396 0.277,5.081 0.277,-0.028 0.554,-0.083 0.803,-0.111 -0.388,-2.375 -1.55,-4.446 -3.349,-6.047 -0.276,-0.249 -0.691,-0.083 -0.719,0.303 -0.083,8.865 1.328,17.674 4.206,26.068 0.277,-0.082 0.526,-0.138 0.802,-0.22 -5.672,-16.21 -11.317,-32.392 -16.99,-48.602 -0.138,-0.359 -0.692,-0.414 -0.802,0 -1.328,5.109 -0.83,10.438 1.411,15.188 0.194,0.414 0.941,0.111 0.747,-0.331 -0.941,-2.375 -2.407,-4.391 -4.427,-5.993 -0.277,-0.22 -0.72,-0.082 -0.72,0.304 0.056,9.969 2.657,19.8 7.555,28.498 0.221,-0.165 0.442,-0.331 0.664,-0.497 -0.498,-0.635 -0.997,-1.27 -1.522,-1.933 -0.222,-0.276 -0.747,-0.055 -0.72,0.304 0.637,5.523 2.574,10.742 5.701,15.326 0.276,0.387 0.83,0.138 0.747,-0.331 -0.139,-0.774 -1.052,-1.05 -1.688,-0.58 -1.162,0.828 -0.028,2.789 0.387,3.728 1.577,3.507 3.929,6.572 6.835,9.085 0.581,0.303 1.162,-0.276 0.747,-0.608 z"></path>
    <path style="fill:#e8e8e8" id="path26" d="m 147.963,479.222 c -0.36,-5.191 9.076,-2.209 11.705,-1.712 4.316,0.801 8.606,1.602 12.922,2.403 8.606,1.601 17.239,3.203 25.845,4.805 0.526,0.11 0.747,-0.691 0.221,-0.801 -9.878,-1.85 -19.729,-3.673 -29.608,-5.523 -4.842,-0.911 -9.685,-1.823 -14.527,-2.706 -1.743,-0.332 -3.763,-0.691 -5.396,0.221 -1.245,0.662 -2.075,1.877 -1.965,3.313 0,0.525 0.858,0.525 0.803,0 z"></path>
    <path style="fill:#e8e8e8" id="path28" d="m 192.707,483.806 c 2.878,0.304 4.649,-2.43 6.89,-3.755 1.91,-1.105 3.57,-0.249 5.535,0.138 2.186,0.442 4.427,0.497 6.641,0.221 0.525,-0.056 0.525,-0.884 0,-0.829 -2.491,0.304 -4.981,0.194 -7.416,-0.414 -1.467,-0.387 -2.795,-0.856 -4.261,-0.276 -2.602,0.994 -4.373,4.418 -7.389,4.087 -0.525,-0.055 -0.525,0.773 0,0.828 z"></path>
    <path style="fill:#e8e8e8" id="path30" d="m 245.476,536.909 c 6.641,-2.32 13.338,-4.64 20.2,-6.297 7.167,-1.712 14.389,-2.402 21.75,-2.181 7.277,0.221 14.499,1.049 21.749,1.712 7.278,0.69 14.555,1.353 21.833,2.044 8.357,0.773 16.741,1.546 25.098,2.347 0.525,0.055 0.525,-0.773 0,-0.829 -14.915,-1.38 -29.83,-2.761 -44.772,-4.169 -14.362,-1.326 -28.806,-3.287 -43.112,-0.332 -7.859,1.629 -15.441,4.28 -22.995,6.904 -0.47,0.165 -0.249,0.966 0.249,0.801 z"></path>
    <path style="fill:#e8e8e8" id="path32" d="m 274.725,509.736 c 4.953,-1.049 9.601,-3.12 14.278,-4.998 5.008,-1.988 10.072,-3.369 15.44,-3.838 5.424,-0.47 10.875,-0.194 16.271,0.138 5.424,0.331 10.847,0.718 16.298,1.104 6.337,0.47 12.702,0.994 19.038,1.547 0.526,0.055 0.526,-0.774 0,-0.829 -11.234,-0.994 -22.469,-1.85 -33.731,-2.568 -10.709,-0.69 -21.251,-0.966 -31.462,2.817 -5.424,2.016 -10.681,4.584 -16.381,5.799 -0.471,0.138 -0.277,0.939 0.249,0.828 z"></path>
    <path style="fill:#e8e8e8" id="path34" d="m 338.507,477.897 c 3.957,-3.01 8.135,-5.965 12.562,-8.229 2.159,-1.105 4.483,-1.989 6.918,-2.182 2.629,-0.221 5.258,0.304 7.831,0.635 5.23,0.635 10.488,1.022 15.745,1.353 3.487,0.221 7.914,0.718 10.377,-2.319 0.332,-0.415 -0.249,-0.994 -0.581,-0.58 -2.795,3.452 -8.689,2.154 -12.508,1.905 -5.257,-0.359 -10.459,-0.856 -15.689,-1.519 -2.242,-0.276 -4.455,-0.497 -6.697,-0.082 -2.213,0.386 -4.289,1.27 -6.253,2.319 -4.262,2.264 -8.302,5.081 -12.148,8.008 -0.387,0.304 0.028,1.022 0.443,0.691 z"></path>
    <path style="fill:#e8e8e8" id="path36" d="m 186.177,473.34 c 3.929,-2.954 7.886,-5.882 11.815,-8.836 3.764,-2.817 7.278,-5.772 12.203,-6.02 4.649,-0.221 9.409,0.304 14.03,0.69 4.981,0.414 9.934,0.967 14.859,1.657 4.151,0.58 9.104,2.126 13.033,-0.028 0.471,-0.248 0.056,-0.966 -0.415,-0.718 -2.02,1.105 -4.261,1.105 -6.502,0.829 -2.408,-0.304 -4.815,-0.718 -7.223,-1.05 -4.648,-0.635 -9.325,-1.159 -14.029,-1.546 -4.621,-0.387 -9.408,-0.939 -14.029,-0.663 -4.289,0.249 -7.471,2.458 -10.82,4.971 -4.455,3.314 -8.882,6.655 -13.337,9.969 -0.415,0.359 0,1.077 0.415,0.745 z"></path>
    <path style="fill:#e8e8e8" id="path38" d="m 341.855,502.529 c 0.249,-1.823 0.609,-3.59 1.135,-5.357 0.249,-0.829 0.498,-1.657 0.83,-2.486 0.193,-0.497 0.719,-1.325 1.439,-1.132 0.359,0.111 0.525,1.353 0.553,1.602 0.055,0.442 0.664,0.58 0.802,0.11 1.301,-4.225 2.795,-8.864 6.78,-11.322 -0.221,-0.11 -0.415,-0.248 -0.637,-0.359 0,0.691 -0.027,1.409 -0.027,2.099 0,0.387 0.581,0.58 0.775,0.221 2.462,-5.109 5.146,-10.466 10.127,-13.559 -0.193,-0.165 -0.415,-0.303 -0.609,-0.469 -2.49,6.434 -5.395,12.702 -8.688,18.778 -0.222,0.386 0.332,0.883 0.664,0.497 1.854,-2.209 3.735,-4.419 6.171,-6.02 -0.194,-0.194 -0.388,-0.387 -0.582,-0.58 -3.071,6.462 -6.419,12.758 -10.1,18.888 -0.276,0.469 0.443,0.884 0.72,0.414 3.652,-6.13 7.028,-12.426 10.1,-18.888 0.166,-0.331 -0.194,-0.828 -0.581,-0.58 -2.491,1.657 -4.428,3.894 -6.337,6.158 0.221,0.166 0.443,0.332 0.664,0.497 3.321,-6.13 6.254,-12.454 8.772,-18.971 0.138,-0.331 -0.332,-0.635 -0.609,-0.469 -5.119,3.175 -7.886,8.615 -10.432,13.862 0.249,0.083 0.526,0.138 0.775,0.221 0,-0.69 0.028,-1.408 0.028,-2.099 0,-0.303 -0.36,-0.524 -0.637,-0.359 -4.15,2.568 -5.783,7.373 -7.139,11.819 0.277,0.028 0.553,0.083 0.802,0.111 -0.138,-1.409 -1.411,-3.811 -2.96,-2.016 -0.775,0.911 -1.08,2.402 -1.412,3.535 -0.553,1.822 -0.94,3.7 -1.217,5.605 -0.028,0.553 0.747,0.773 0.83,0.249 z"></path>
    <path style="fill:#e8e8e8" id="path40" d="m 148.516,455.916 c 2.159,-1.16 4.345,-2.32 6.724,-2.955 2.519,-0.663 5.009,-0.442 7.527,-0.11 5.009,0.662 10.017,1.325 14.998,1.988 0.526,0.083 0.526,-0.746 0,-0.829 -5.341,-0.718 -10.709,-1.491 -16.049,-2.126 -2.463,-0.304 -4.815,-0.304 -7.195,0.387 -2.269,0.662 -4.372,1.795 -6.447,2.899 -0.471,0.304 -0.028,0.994 0.442,0.746 z"></path>
    <path style="fill:#e8e8e8" id="path42" d="m 316.84,268.607 c 1.993,-1.684 4.787,-1.353 6.973,-0.276 1.661,0.801 3.017,2.43 4.954,2.513 1.798,0.055 3.292,-1.16 4.814,-1.96 1.024,-0.525 2.076,-0.884 3.238,-0.636 1.245,0.249 2.324,0.967 3.459,1.464 3.735,1.629 6.226,-0.635 9.38,-2.43 0.886,-0.497 1.827,-0.939 2.85,-1.022 1.301,-0.11 2.463,0.47 3.625,0.967 1.827,0.773 3.21,1.077 5.064,0.331 1.909,-0.746 3.459,-0.635 5.368,0.055 1.218,0.442 2.38,0.994 3.653,1.271 1.909,0.441 3.957,0.331 5.396,-1.133 0.387,-0.386 -0.222,-0.966 -0.581,-0.58 -1.854,1.878 -4.677,0.995 -6.807,0.166 -2.159,-0.828 -4.372,-1.712 -6.669,-0.856 -1.439,0.552 -2.408,0.939 -3.957,0.414 -1.052,-0.359 -2.02,-0.939 -3.099,-1.242 -1.633,-0.497 -3.155,-0.221 -4.649,0.524 -1.716,0.856 -3.21,2.21 -5.009,2.927 -2.379,0.939 -4.233,-0.303 -6.392,-1.215 -1.577,-0.662 -3.071,-0.773 -4.648,-0.082 -1.91,0.856 -3.764,2.733 -6.005,1.933 -1.19,-0.415 -2.131,-1.381 -3.21,-1.989 -0.913,-0.497 -1.909,-0.856 -2.933,-1.049 -1.965,-0.359 -3.874,-0.028 -5.424,1.27 -0.387,0.415 0.222,0.994 0.609,0.635 z"></path>
    <path style="fill:#e8e8e8" id="path44" d="m 326.802,287.468 c 0.526,0 0.526,-0.828 0,-0.828 -0.526,0 -0.526,0.828 0,0.828 z"></path>
    <path style="fill:#e8e8e8" id="path46" d="m 332.336,290.478 c 1.301,-2.347 4.372,-1.215 6.281,-0.442 1.91,0.773 3.625,1.243 5.645,0.552 1.661,-0.579 3.155,-1.684 4.87,-2.071 2.38,-0.552 3.736,1.464 5.894,1.933 3.376,0.746 6.78,-3.01 9.962,-1.436 0.886,0.442 1.494,1.022 2.546,0.939 0.968,-0.055 1.854,-0.524 2.795,-0.745 2.628,-0.608 5.368,-0.138 7.72,1.16 0.47,0.248 0.885,-0.47 0.415,-0.718 -1.494,-0.829 -3.099,-1.326 -4.787,-1.492 -0.858,-0.082 -1.743,-0.055 -2.601,0.083 -1.024,0.138 -1.965,0.58 -2.961,0.773 -1.356,0.249 -1.937,-0.414 -3.044,-0.883 -0.553,-0.221 -1.162,-0.332 -1.743,-0.304 -1.384,0.055 -2.712,0.635 -3.985,1.105 -1.632,0.607 -3.376,1.187 -5.036,0.359 -1.411,-0.691 -2.518,-1.74 -4.178,-1.74 -3.432,0.027 -5.839,3.314 -9.464,2.319 -2.684,-0.745 -7.001,-3.369 -8.993,0.166 -0.304,0.497 0.415,0.911 0.664,0.442 z"></path>
    <path style="fill:#e8e8e8" id="path48" d="m 305.495,323.532 c 1.965,-1.546 4.206,-1.463 6.364,-0.469 1.19,0.552 2.463,1.077 3.708,0.331 0.72,-0.442 1.19,-1.132 2.048,-1.38 0.913,-0.277 1.882,-0.083 2.767,0.138 1.577,0.386 3.099,1.077 4.732,1.187 1.937,0.138 3.708,-0.69 5.59,-0.884 2.02,-0.193 3.431,1.022 5.312,1.298 1.827,0.249 3.238,-1.215 5.064,-0.939 2.214,0.332 4.4,1.077 6.586,1.63 0.526,0.138 0.747,-0.663 0.221,-0.801 -2.296,-0.58 -4.676,-1.464 -7.028,-1.712 -1.992,-0.221 -3.431,1.408 -5.424,0.801 -1.854,-0.553 -3.182,-1.354 -5.174,-1.077 -2.131,0.303 -4.068,1.132 -6.254,0.662 -1.688,-0.359 -3.32,-1.159 -5.064,-1.27 -0.636,-0.028 -1.3,0.028 -1.909,0.276 -0.775,0.304 -1.19,0.939 -1.909,1.353 -1.661,0.967 -3.902,-1.077 -5.673,-1.215 -1.688,-0.138 -3.237,0.442 -4.566,1.464 -0.415,0.359 0.194,0.939 0.609,0.607 z"></path>
    <path style="fill:#e8e8e8" id="path50" d="m 146.856,263.278 c 0.526,0 0.526,-0.829 0,-0.829 -0.526,0 -0.526,0.829 0,0.829 z"></path>
    <path style="fill:#e8e8e8" id="path52" d="m 149.291,263.913 c 0.498,-2.458 3.763,-0.884 4.953,-0.138 1.356,0.856 2.795,1.629 4.455,1.16 1.799,-0.525 3.016,-2.071 5.009,-2.182 1.881,-0.083 3.708,0.773 5.479,1.326 1.522,0.469 3.127,0.8 4.704,0.414 1.854,-0.442 3.431,-1.74 5.313,-2.071 3.708,-0.635 7.056,2.375 10.819,1.215 0.498,-0.166 0.304,-0.967 -0.221,-0.801 -3.93,1.243 -7.665,-2.237 -11.65,-0.994 -2.048,0.635 -3.763,2.071 -6.005,1.988 -2.075,-0.083 -3.956,-1.077 -5.921,-1.574 -1.55,-0.387 -3.127,-0.497 -4.621,0.193 -0.858,0.387 -1.605,1.022 -2.463,1.436 -1.411,0.663 -2.601,0.276 -3.874,-0.441 -1.383,-0.801 -2.573,-1.74 -4.261,-1.602 -1.19,0.083 -2.242,0.69 -2.463,1.905 -0.138,0.47 0.664,0.691 0.747,0.166 z"></path>
    <path style="fill:#e8e8e8" id="path54" d="m 151.809,425.153 c 3.293,-1.38 6.614,1.077 9.934,1.243 1.716,0.083 3.376,-0.331 5.064,-0.663 2.131,-0.414 3.957,-0.442 6.005,0.414 1.245,0.525 2.379,0.856 3.652,0.359 0.72,-0.276 1.329,-0.745 2.048,-0.994 0.802,-0.276 1.633,-0.331 2.49,-0.331 2.961,0.055 5.922,1.077 8.744,-0.249 0.471,-0.221 0.056,-0.938 -0.415,-0.718 -3.016,1.409 -6.364,-0.138 -9.546,0.194 -1.522,0.165 -2.518,1.049 -3.929,1.463 -1.688,0.497 -3.349,-0.939 -5.009,-1.187 -3.57,-0.552 -6.945,1.436 -10.543,0.718 -2.877,-0.58 -5.783,-2.265 -8.716,-1.022 -0.471,0.193 -0.249,0.994 0.221,0.773 z"></path>
    <path style="fill:#0a3871" id="path56" d="m 91.9841,384.477 c 2.4146,0 4.3721,-1.953 4.3721,-4.363 0,-2.409 -1.9575,-4.363 -4.3721,-4.363 -2.4146,0 -4.372,1.954 -4.372,4.363 0,2.41 1.9574,4.363 4.372,4.363 z"></path>
    <path style="fill:#0a3871" id="path58" d="m 346.476,354.488 c 1.696,0 3.072,-1.372 3.072,-3.065 0,-1.693 -1.376,-3.065 -3.072,-3.065 -1.696,0 -3.071,1.372 -3.071,3.065 0,1.693 1.375,3.065 3.071,3.065 z"></path>
    <path style="fill:#0a3871" id="path60" d="m 318.833,247.703 c 1.253,0 2.269,-1.013 2.269,-2.264 0,-1.251 -1.016,-2.264 -2.269,-2.264 -1.254,0 -2.269,1.013 -2.269,2.264 0,1.251 1.015,2.264 2.269,2.264 z"></path>
    <path style="fill:#0a3871" id="path62" d="m 218.884,444.069 c 1.559,0 2.823,-1.261 2.823,-2.817 0,-1.555 -1.264,-2.816 -2.823,-2.816 -1.559,0 -2.822,1.261 -2.822,2.816 0,1.556 1.263,2.817 2.822,2.817 z"></path>
    <path style="fill:#0a3871" id="path64" d="m 88.7742,284.099 c 1.788,0 3.2375,-1.446 3.2375,-3.231 0,-1.784 -1.4495,-3.231 -3.2375,-3.231 -1.7881,0 -3.2376,1.447 -3.2376,3.231 0,1.785 1.4495,3.231 3.2376,3.231 z"></path>
    <path style="fill:#0a3871" id="path66" d="m 200.4,397.456 c 1.024,0 1.854,-0.828 1.854,-1.85 0,-1.022 -0.83,-1.85 -1.854,-1.85 -1.024,0 -1.854,0.828 -1.854,1.85 0,1.022 0.83,1.85 1.854,1.85 z"></path>
    <path style="fill:#0a3871" id="path68" d="m 375.392,413.196 c 1.559,0 2.823,-1.261 2.823,-2.816 0,-1.556 -1.264,-2.817 -2.823,-2.817 -1.558,0 -2.822,1.261 -2.822,2.817 0,1.555 1.264,2.816 2.822,2.816 z"></path>
    <path style="fill:#0a3871" id="path70" d="m 67.7441,459.754 c 1.1615,0 2.103,-0.94 2.103,-2.099 0,-1.159 -0.9415,-2.098 -2.103,-2.098 -1.1614,0 -2.103,0.939 -2.103,2.098 0,1.159 0.9416,2.099 2.103,2.099 z"></path>
    <path style="fill:#ffffff" id="path72" d="m 153.746,296.664 c -2.407,4.887 -4.842,9.775 -7.25,14.663 9.962,13.338 19.923,26.648 29.885,39.985 2.574,-3.893 5.119,-7.87 7.693,-11.874 6.06,-9.499 11.843,-18.888 17.377,-28.194 -1.881,-4.777 -3.791,-9.582 -5.672,-14.359 -1.218,-0.636 -2.435,-1.243 -3.653,-1.878 -11.788,0.027 -23.576,0.055 -35.336,0.083 -1.052,0.552 -2.048,1.077 -3.044,1.574 z"></path>
    <path style="fill:#000000" id="path74" d="m 146.828,311.548 c 2.103,-4.612 4.262,-9.196 6.475,-13.752 0.222,-0.47 -0.47,-0.911 -0.719,-0.414 -2.214,4.556 -4.372,9.14 -6.475,13.752 -0.222,0.469 0.498,0.911 0.719,0.414 z"></path>
    <path style="fill:#000000" id="path76" d="m 146.275,312.045 c 9.74,13.338 19.674,26.51 29.802,39.571 0.332,0.414 0.913,-0.165 0.581,-0.58 -10.073,-13.006 -19.951,-26.123 -29.664,-39.405 -0.304,-0.415 -1.024,0 -0.719,0.414 z"></path>
    <path style="fill:#000000" id="path78" d="m 153.497,297.326 c 1.162,-0.607 2.297,-1.242 3.459,-1.85 0.47,-0.248 0.055,-0.966 -0.415,-0.718 -1.162,0.608 -2.297,1.243 -3.459,1.85 -0.498,0.277 -0.055,0.967 0.415,0.718 z"></path>
    <path style="fill:#000000" id="path80" d="m 157.648,295.531 c 8.633,0 17.294,0 25.928,0 0.525,0 0.525,-0.828 0,-0.828 -8.634,0 -17.295,0 -25.928,0 -0.526,0 -0.526,0.828 0,0.828 z"></path>
    <path style="fill:#000000" id="path82" d="m 201.839,311.161 c -1.744,-4.611 -3.542,-9.168 -5.396,-13.752 -0.194,-0.497 -0.996,-0.276 -0.803,0.221 1.854,4.556 3.653,9.14 5.396,13.752 0.194,0.497 0.996,0.276 0.803,-0.221 z"></path>
    <path style="fill:#000000" id="path84" d="m 200.925,311.575 c -8.107,13.255 -16.381,26.427 -24.821,39.489 -0.304,0.442 0.415,0.856 0.72,0.414 8.44,-13.061 16.713,-26.206 24.821,-39.488 0.277,-0.442 -0.443,-0.884 -0.72,-0.415 z"></path>
    <path style="fill:#000000" id="path86" d="m 195.945,296.553 c -0.969,-0.607 -1.937,-1.242 -2.906,-1.85 -0.443,-0.276 -0.858,0.414 -0.415,0.718 0.969,0.608 1.937,1.243 2.906,1.85 0.47,0.304 0.885,-0.414 0.415,-0.718 z"></path>
    <path style="fill:#000000" id="path88" d="m 192.098,294.62 c -7.222,0 -14.444,0 -21.639,0 -0.525,0 -0.525,0.829 0,0.829 7.223,0 14.445,0 21.639,0 0.526,0 0.526,-0.829 0,-0.829 z"></path>
    <path style="fill:#000000" id="path90" d="m 147.16,311.962 c 4.954,-2.126 9.907,-4.253 14.86,-6.379 0.498,-0.221 0.055,-0.911 -0.415,-0.718 -4.953,2.126 -9.906,4.253 -14.86,6.379 -0.47,0.221 -0.055,0.939 0.415,0.718 z"></path>
    <path style="fill:#000000" id="path92" d="m 153.635,297.078 c 3.044,0.469 6.033,1.132 8.993,1.96 0.526,0.139 0.748,-0.662 0.222,-0.8 -2.961,-0.856 -5.949,-1.491 -8.993,-1.961 -0.526,-0.083 -0.775,0.718 -0.222,0.801 z"></path>
    <path style="fill:#000000" id="path94" d="m 162.407,298.9 c 0.664,2.072 1.245,4.143 1.743,6.269 0.111,0.525 0.914,0.304 0.803,-0.221 -0.498,-2.126 -1.079,-4.197 -1.743,-6.268 -0.166,-0.497 -0.969,-0.304 -0.803,0.22 z"></path>
    <path style="fill:#000000" id="path96" d="m 163.68,298.983 c 7.416,0 14.804,0 22.22,0 0.526,0 0.526,-0.828 0,-0.828 -7.416,0 -14.804,0 -22.22,0 -0.526,0 -0.526,0.828 0,0.828 z"></path>
    <path style="fill:#000000" id="path98" d="m 185.54,299.149 c -0.276,1.519 -0.553,3.065 -0.83,4.584 -0.083,0.525 0.72,0.746 0.803,0.221 0.276,-1.519 0.553,-3.065 0.83,-4.584 0.083,-0.525 -0.72,-0.746 -0.803,-0.221 z"></path>
    <path style="fill:#000000" id="path100" d="m 164.593,305.224 c 6.475,0 12.95,0 19.453,0 0.526,0 0.526,-0.828 0,-0.828 -6.475,0 -12.95,0 -19.453,0 -0.526,0 -0.526,0.828 0,0.828 z"></path>
    <path style="fill:#000000" id="path102" d="m 186.703,298.983 c 3.016,-0.635 6.004,-1.27 9.02,-1.905 0.526,-0.111 0.305,-0.911 -0.221,-0.801 -3.016,0.635 -6.005,1.27 -9.021,1.905 -0.526,0.111 -0.304,0.912 0.222,0.801 z"></path>
    <path style="fill:#000000" id="path104" d="m 185.319,304.976 c 2.795,0.441 5.396,2.015 7.942,3.203 2.711,1.27 5.395,2.54 8.107,3.811 0.471,0.221 0.913,-0.497 0.415,-0.718 -2.877,-1.353 -5.728,-2.679 -8.605,-4.032 -2.435,-1.16 -4.954,-2.623 -7.638,-3.065 -0.525,-0.083 -0.747,0.718 -0.221,0.801 z"></path>
    <path style="fill:#000000" id="path106" d="m 164.842,306.494 c 3.598,14.802 7.167,29.631 10.764,44.432 0.139,0.525 0.913,0.304 0.803,-0.221 -3.597,-14.801 -7.167,-29.63 -10.764,-44.432 -0.139,-0.524 -0.941,-0.303 -0.803,0.221 z"></path>
    <path style="fill:#000000" id="path108" d="m 184.157,307.488 c -3.376,14.25 -6.171,28.664 -8.329,43.162 -0.083,0.524 0.719,0.745 0.802,0.221 2.158,-14.498 4.953,-28.885 8.329,-43.162 0.139,-0.524 -0.664,-0.745 -0.802,-0.221 z"></path>
    <path style="fill:#000000" id="path110" d="m 184.433,279.847 c 1.246,-3.176 1.937,-6.517 2.048,-9.942 0.028,-0.524 -0.802,-0.524 -0.83,0 -0.111,3.342 -0.802,6.6 -2.02,9.721 -0.194,0.497 0.609,0.69 0.802,0.221 z"></path>
    <path style="fill:#000000" id="path112" d="m 190.106,280.399 c 2.656,-3.01 5.645,-5.661 8.993,-7.898 0.443,-0.304 0.028,-1.022 -0.415,-0.718 -3.403,2.264 -6.475,4.971 -9.159,8.036 -0.36,0.386 0.221,0.966 0.581,0.58 z"></path>
    <path style="fill:#000000" id="path114" d="m 195.557,285.507 c 3.432,-1.021 6.973,-1.408 10.543,-1.132 0.526,0.028 0.526,-0.801 0,-0.828 -3.653,-0.276 -7.25,0.11 -10.764,1.16 -0.498,0.165 -0.304,0.966 0.221,0.8 z"></path>
    <path style="fill:#e8e8e8" id="path116" d="m 137.254,266.15 c 0.332,5.467 -2.739,10.687 -7.665,13.061 -0.277,0.138 -0.249,0.553 0,0.718 4.511,2.707 6.586,7.677 7.776,12.565 0.138,0.525 0.913,0.304 0.802,-0.221 -1.245,-5.109 -3.459,-10.273 -8.163,-13.062 0,0.249 0,0.47 0,0.718 5.175,-2.513 8.44,-8.063 8.08,-13.779 -0.027,-0.525 -0.858,-0.525 -0.83,0 z"></path>
    <path style="fill:#e8e8e8" id="path118" d="m 137.558,266.15 c -0.359,5.744 2.906,11.294 8.08,13.779 0,-0.248 0,-0.469 0,-0.718 -4.731,2.817 -6.945,7.981 -8.19,13.117 -0.139,0.525 0.664,0.746 0.802,0.221 1.19,-4.915 3.265,-9.913 7.803,-12.62 0.25,-0.138 0.277,-0.58 0,-0.718 -4.925,-2.374 -8.024,-7.594 -7.692,-13.061 0.055,-0.525 -0.775,-0.525 -0.803,0 z"></path>
    <path style="fill:#000000" id="path120" d="m 272.29,473.451 c 0.968,-0.414 2.296,-1.022 3.818,-1.878 2.546,-1.408 3.819,-2.126 4.594,-3.258 0.996,-1.492 0.608,-2.292 1.909,-3.784 0.194,-0.248 1.107,-1.215 2.297,-1.739 2.047,-0.856 3.957,0.165 7.139,1.298 2.933,1.049 5.23,1.546 9.823,2.568 1.826,0.414 4.04,0.828 7.25,1.822 0.913,0.276 1.633,0.525 2.131,0.691 0.055,0.58 0.083,2.071 -0.886,3.424 -0.443,0.607 -1.051,1.104 -2.02,1.546 -2.241,1.05 -4.372,0.856 -6.171,0.773 -3.874,-0.165 -2.269,0.387 -11.4,0.553 -1.992,0.027 -3.625,0.027 -4.76,0.027 -1.411,0.967 -2.822,1.961 -4.261,2.983 -2.435,1.767 -4.759,3.534 -6.973,5.274 -0.83,-3.424 -1.66,-6.876 -2.49,-10.3 z"></path>
    <path style="fill:#ffffff" id="path122" d="m 260.751,438.105 c -1.993,1.049 -2.214,1.435 -9.63,7.732 -11.566,9.803 -12.839,10.327 -23.327,19.468 -10.044,8.726 -11.926,10.907 -13.835,13.779 -4.76,7.263 -5.811,13.338 -6.116,16.293 -0.415,3.976 -0.968,9.499 2.546,13.862 2.214,2.734 5.092,3.866 6.06,4.225 2.906,1.105 5.285,0.967 9.574,0.663 5.701,-0.414 10.045,-1.519 11.761,-1.988 1.881,-0.525 6.253,-1.823 11.732,-4.529 5.147,-2.541 7.361,-4.418 14.389,-9.14 3.127,-2.099 7.748,-5.164 13.559,-8.699 0.36,-2.761 0.056,-4.915 -0.249,-6.268 -0.719,-3.204 -2.186,-5.413 -3.818,-7.843 -1.329,-1.988 -2.602,-3.507 -3.487,-4.501 2.075,-1.574 4.787,-3.838 7.637,-6.876 1.91,-2.044 4.926,-5.302 7.444,-9.886 3.099,-5.633 6.198,-11.322 4.206,-15.243 -3.127,-6.158 -18.014,-6.434 -28.446,-1.049 z"></path>
    <path style="opacity:0.18000004;fill:#9b9797" id="path124" d="m 285.544,441.115 c -1.577,3.645 -4.178,8.808 -8.329,14.331 -6.032,7.981 -12.12,12.399 -21.307,18.944 -25.983,18.501 -32.956,22.726 -32.181,24.494 1.051,2.402 15.689,-1.906 17.82,-2.541 15.551,-4.584 27.007,-11.653 34.174,-16.817 -1.826,-2.789 -3.653,-5.578 -5.479,-8.339 2.241,-1.602 5.341,-4.143 8.246,-7.926 1.605,-2.071 4.04,-5.274 5.617,-10.107 1.605,-4.805 1.661,-9.085 1.439,-12.039 z"></path>
    <path style="fill:#000000" id="path126" d="m 260.64,438.077 c -9.851,7.318 -19.453,14.995 -28.695,23.03 -4.427,3.839 -8.855,7.677 -13.005,11.792 -3.681,3.645 -7.112,7.677 -9.187,12.481 -2.159,4.971 -2.767,10.715 -2.242,16.1 0.443,4.446 2.076,8.919 6.143,11.239 4.262,2.402 9.63,2.154 14.334,1.657 5.783,-0.58 11.484,-1.989 16.879,-4.17 12.037,-4.888 21.473,-14.028 32.846,-20.076 0.471,-0.248 0.056,-0.966 -0.415,-0.718 -9.491,5.054 -17.571,12.344 -27.09,17.397 -4.981,2.651 -10.349,4.584 -15.883,5.772 -5.119,1.077 -10.875,1.905 -16.077,0.911 -2.435,-0.47 -4.787,-1.464 -6.531,-3.286 -1.688,-1.795 -2.601,-4.142 -3.071,-6.545 -1.024,-5.219 -0.554,-11.128 1.162,-16.154 1.716,-5.026 5.064,-9.251 8.716,-13.007 3.791,-3.893 7.942,-7.483 12.01,-11.045 9.823,-8.616 20.006,-16.845 30.521,-24.632 0.415,-0.332 0.028,-1.05 -0.415,-0.746 z"></path>
    <path style="fill:#000000" id="path128" d="m 233.522,494.686 c 9.076,-3.507 17.295,-8.753 25.098,-14.497 3.846,-2.817 7.637,-5.744 11.401,-8.671 3.708,-2.9 7.249,-5.965 10.127,-9.693 0.332,-0.414 -0.387,-0.828 -0.719,-0.414 -2.933,3.811 -6.614,6.876 -10.377,9.831 -3.708,2.899 -7.443,5.771 -11.262,8.56 -7.637,5.578 -15.634,10.715 -24.489,14.111 -0.498,0.166 -0.277,0.967 0.221,0.773 z"></path>
    <path style="fill:#000000" id="path130" d="m 269.606,471.435 c 5.34,4.474 8.163,11.405 7.415,18.336 -0.055,0.525 0.775,0.525 0.831,0 0.747,-7.124 -2.186,-14.304 -7.665,-18.916 -0.388,-0.359 -0.969,0.221 -0.581,0.58 z"></path>
    <path style="fill:#000000" id="path132" d="m 276.966,482.067 c 1.577,-0.47 2.961,-1.795 4.289,-2.734 1.66,-1.16 3.293,-2.32 4.953,-3.48 0.443,-0.303 0.028,-1.021 -0.415,-0.718 -1.494,1.05 -3.016,2.127 -4.51,3.176 -1.384,0.967 -2.906,2.458 -4.538,2.955 -0.526,0.138 -0.305,0.939 0.221,0.801 z"></path>
    <path style="fill:#000000" id="path134" d="m 272.4,473.837 c 3.127,-1.297 6.005,-3.065 8.606,-5.246 0.415,-0.359 -0.194,-0.939 -0.581,-0.58 -2.463,2.099 -5.23,3.783 -8.218,5.026 -0.499,0.221 -0.277,1.021 0.193,0.8 z"></path>
    <path style="fill:#000000" id="path136" d="m 280.702,468.232 c 0.525,0 0.525,-0.829 0,-0.829 -0.526,0 -0.526,0.829 0,0.829 z"></path>
    <path style="fill:#000000" id="path138" d="m 281.698,467.238 c 0.47,-1.105 0.968,-2.32 1.854,-3.176 1.19,-1.16 2.629,-0.994 4.15,-0.663 2.823,0.635 5.59,1.519 8.357,2.32 2.574,0.718 5.147,1.353 7.803,1.657 1.55,0.165 2.851,0.359 4.234,1.049 1.024,0.497 1.909,0.994 3.044,1.105 0.526,0.055 0.526,-0.773 0,-0.829 -1.522,-0.138 -2.712,-1.187 -4.151,-1.657 -1.439,-0.469 -3.044,-0.441 -4.538,-0.69 -3.265,-0.525 -6.447,-1.519 -9.602,-2.458 -1.549,-0.441 -3.099,-0.883 -4.676,-1.242 -1.162,-0.249 -2.38,-0.553 -3.542,-0.194 -2.02,0.608 -2.989,2.762 -3.736,4.557 -0.193,0.497 0.609,0.718 0.803,0.221 z"></path>
    <path style="fill:#000000" id="path140" d="m 286.098,476.461 c 5.921,-0.884 11.787,-1.022 17.764,-1.132 2.076,-0.028 4.289,-0.276 5.95,-1.63 1.411,-1.159 2.213,-2.844 1.826,-4.639 -0.111,-0.524 -0.913,-0.304 -0.802,0.221 0.525,2.513 -1.744,4.363 -3.985,4.916 -2.297,0.552 -4.787,0.276 -7.139,0.331 -4.649,0.083 -9.242,0.469 -13.836,1.16 -0.526,0.055 -0.277,0.856 0.222,0.773 z"></path>
    <path style="fill:#000000" id="path142" d="m 307.1,470.965 c 2.048,-1.463 4.123,-2.927 6.171,-4.39 0.138,-0.939 0.581,-2.983 2.269,-4.722 0.498,-0.525 1.66,-1.74 3.403,-2.071 1.827,-0.359 3.238,0.469 4.815,1.187 2.546,1.16 5.008,1.602 9.879,2.541 3.846,0.718 5.783,1.077 8.55,0.938 3.763,-0.22 6.447,-1.215 8.052,0.359 0.166,0.166 0.858,0.912 0.803,1.823 -0.083,1.16 -1.328,1.905 -2.325,2.485 -4.344,2.486 -6.779,3.204 -6.779,3.204 -6.143,1.794 -9.242,2.706 -11.899,2.927 -2.158,0.165 -5.23,0.248 -8.937,-0.332 -1.08,3.701 -4.345,6.075 -7.416,5.882 -3.957,-0.248 -7.61,-4.694 -6.586,-9.831 z"></path>
    <path style="fill:#ffffff" id="path144" d="m 267.364,446.554 c 0.609,-1.85 1.743,-4.197 3.874,-4.97 1.384,-0.497 2.656,-0.166 3.072,-0.055 2.573,0.635 7.858,-0.277 18.401,-2.072 5.23,-0.883 11.843,-2.181 19.453,-4.114 0.027,1.408 0,3.258 -0.083,5.412 -0.194,4.833 -0.692,8.478 -0.803,9.334 -0.47,3.424 -1.3,9.113 -3.818,16.016 -0.637,1.768 -1.273,3.231 -1.716,4.225 1.079,0.497 2.241,1.16 3.376,2.099 4.676,3.728 6.032,9.002 6.475,11.239 -0.664,0.801 -1.66,1.988 -2.933,3.341 -5.147,5.468 -9.906,8.533 -18.983,14.139 -5.589,3.452 -9.685,5.965 -16.243,9.831 -7.969,4.694 -14.416,8.339 -22.441,10.631 -1.992,0.58 -5.147,1.353 -9.131,0.939 -1.937,-0.193 -5.424,-0.552 -8.772,-2.982 -4.289,-3.093 -5.645,-7.622 -6.199,-9.61 -1.245,-4.446 -0.774,-8.616 0.388,-12.951 0.802,-3.038 3.708,-13.117 13.808,-24.467 2.02,-2.264 7.775,-7.373 19.231,-17.59 2.767,-2.458 5.036,-4.473 6.558,-5.799 -1.162,-0.884 -2.324,-1.74 -3.514,-2.596 z"></path>
    <path style="opacity:0.18000004;fill:#9b9797" id="path146" d="m 304.997,438.905 c -0.637,2.43 -1.66,5.937 -3.21,10.052 -14.14,37.39 -45.741,53.544 -43.167,57.576 1.882,2.982 19.923,-4.446 32.929,-12.261 9.74,-5.854 16.99,-12.123 21.832,-16.845 -0.775,-1.132 -1.964,-2.678 -3.763,-4.142 -1.743,-1.408 -3.404,-2.264 -4.649,-2.789 0.858,-1.243 1.993,-3.12 2.961,-5.523 0.636,-1.546 1.19,-3.203 1.909,-6.572 1.163,-5.33 1.633,-9.555 1.771,-10.88 0.332,-3.176 0.637,-7.29 0.581,-12.151 -2.407,1.16 -4.787,2.348 -7.194,3.535 z"></path>
    <path style="fill:#000000" id="path148" d="m 311.776,435.343 c 0.028,5.219 -0.304,10.438 -1.023,15.63 -0.665,4.666 -1.495,9.471 -3.21,13.89 -1.854,4.777 -5.037,8.256 -8.883,11.542 -3.929,3.342 -7.886,6.628 -11.843,9.914 -4.538,3.783 -9.104,7.539 -13.642,11.322 -0.415,0.331 0.166,0.911 0.581,0.58 8.329,-6.904 16.658,-13.78 24.932,-20.766 3.652,-3.093 6.973,-6.296 8.965,-10.742 1.937,-4.308 2.878,-9.03 3.625,-13.669 0.941,-5.855 1.384,-11.764 1.328,-17.701 0,-0.552 -0.83,-0.552 -0.83,0 z"></path>
    <path style="fill:#000000" id="path150" d="m 267.834,447.328 c 1.135,0.607 2.27,1.215 3.432,1.822 0.47,0.249 0.885,-0.469 0.415,-0.718 -1.135,-0.607 -2.269,-1.215 -3.431,-1.822 -0.471,-0.249 -0.886,0.469 -0.416,0.718 z"></path>
    <path style="fill:#000000" id="path152" d="m 271.266,448.819 c -9.851,8.008 -20.2,15.933 -28.419,25.654 -7.083,8.367 -12.922,18.971 -12.894,30.21 0,4.943 1.356,10.107 5.008,13.614 3.653,3.534 8.938,4.915 13.919,4.666 6.087,-0.303 11.871,-2.706 17.294,-5.357 5.811,-2.844 11.318,-6.213 16.852,-9.554 11.4,-6.904 24.129,-13.338 32.68,-23.859 0.332,-0.414 -0.249,-0.994 -0.581,-0.58 -7.167,8.837 -17.24,14.497 -26.842,20.296 -5.285,3.204 -10.515,6.462 -15.91,9.5 -5.286,2.982 -10.792,5.826 -16.631,7.511 -5.479,1.574 -11.594,1.905 -16.769,-0.828 -4.98,-2.596 -7.526,-7.622 -8.052,-13.09 -1.024,-11.045 4.538,-22.036 11.262,-30.431 8.385,-10.466 19.342,-18.805 29.691,-27.2 0.388,-0.304 -0.193,-0.884 -0.608,-0.552 z"></path>
    <path style="fill:#000000" id="path154" d="m 305.55,470.662 c 5.203,2.485 8.827,7.4 9.685,13.089 0.083,0.525 0.886,0.304 0.803,-0.221 -0.858,-5.882 -4.677,-11.046 -10.045,-13.586 -0.498,-0.221 -0.913,0.497 -0.443,0.718 z"></path>
    <path style="fill:#000000" id="path156" d="m 307.211,471.38 c 1.106,-0.442 1.992,-1.188 2.933,-1.906 1.107,-0.856 2.241,-1.684 3.348,-2.54 0.415,-0.332 0,-1.05 -0.415,-0.718 -0.996,0.745 -1.992,1.491 -2.989,2.264 -0.968,0.746 -1.937,1.657 -3.099,2.099 -0.47,0.193 -0.276,0.994 0.222,0.801 z"></path>
    <path style="fill:#000000" id="path158" d="m 313.907,466.602 c 0.553,-1.629 1.218,-3.231 2.103,-4.722 1.218,-2.043 3.044,-1.822 5.092,-1.298 3.182,0.801 6.226,2.016 9.435,2.734 6.226,1.381 12.619,1.85 18.983,1.436 0.526,-0.027 0.526,-0.856 0,-0.828 -7.499,0.497 -15.053,-0.276 -22.303,-2.32 -1.743,-0.497 -3.431,-1.132 -5.175,-1.629 -1.328,-0.387 -2.905,-0.829 -4.289,-0.552 -1.245,0.248 -1.964,1.187 -2.573,2.236 -0.858,1.492 -1.522,3.093 -2.075,4.722 -0.166,0.497 0.636,0.718 0.802,0.221 z"></path>
    <path style="fill:#000000" id="path160" d="m 315.097,479.94 c 2.075,-1.574 4.123,-3.148 6.198,-4.722 0.415,-0.331 0,-1.049 -0.415,-0.718 -2.075,1.574 -4.123,3.148 -6.198,4.722 -0.415,0.331 0,1.049 0.415,0.718 z"></path>
    <path style="fill:#000000" id="path162" d="m 321.268,475.025 c 6.751,1.463 13.641,0.359 20.034,-2.071 2.905,-1.105 6.226,-2.348 8.716,-4.225 1.743,-1.298 1.992,-3.783 -0.304,-4.667 -0.499,-0.193 -0.72,0.607 -0.222,0.801 1.245,0.469 1.384,1.822 0.526,2.761 -0.415,0.47 -0.996,0.773 -1.55,1.105 -1.134,0.635 -2.296,1.215 -3.459,1.767 -2.462,1.16 -5.008,2.154 -7.637,2.927 -5.174,1.491 -10.598,1.988 -15.911,0.829 -0.498,-0.139 -0.719,0.662 -0.193,0.773 z"></path>
    <path style="fill:#0a3871" id="path164" d="m 249.156,355.759 c 4.206,-3.48 10.488,-7.677 18.872,-10.163 3.929,-1.159 8.855,-2.595 15.385,-2.043 10.017,0.856 16.907,5.771 19.343,7.566 3.818,2.789 6.419,5.744 8.024,7.815 0.305,19.358 0.72,38.743 1.245,58.101 0.166,5.965 0.332,11.957 0.526,17.922 -3.929,2.43 -9.436,5.163 -16.409,6.765 -16.326,3.728 -29.912,-1.243 -35.419,-3.645 -0.028,-4.888 -0.332,-12.233 -1.826,-21.042 -2.435,-14.47 -6.226,-20.297 -8.606,-32.751 -1.19,-6.434 -2.324,-16.099 -1.135,-28.525 z"></path>
    <path style="fill:#ffffff" id="path166" d="m 299.186,360.536 c -1.356,1.491 -1.605,3.175 -1.522,9.637 0.055,6.793 0.415,11.432 0.637,16.817 0.166,3.894 0.304,6.987 0.221,11.018 -0.083,5.081 -0.415,9.251 -0.72,12.04 -2.711,3.038 -5.119,5.413 -6.917,7.125 -4.04,3.838 -8.44,7.98 -14.943,11.874 -2.573,1.519 -4.787,2.623 -6.281,3.314 -1.356,-0.221 -2.878,-0.553 -4.538,-0.967 -3.93,-0.994 -5.562,-1.878 -8.523,-1.878 -0.885,0 -3.68,0 -3.957,0.994 -0.249,0.829 1.301,2.127 2.518,2.762 1.135,0.58 1.633,0.414 2.767,0.939 1.273,0.607 2.103,1.491 2.601,2.154 -0.525,0.745 -1.328,1.877 -2.213,3.341 -1.024,1.712 -1.246,2.375 -2.435,4.418 -1.246,2.154 -1.882,3.231 -2.435,3.783 -0.858,0.801 -1.384,0.967 -5.23,2.679 -3.819,1.712 -4.483,2.099 -4.483,2.568 0,0.47 0.747,0.58 3.708,1.85 2.407,1.022 2.629,1.243 3.874,1.602 1.549,0.442 2.49,0.718 3.625,0.469 1.798,-0.359 2.961,-1.712 3.459,-2.43 0.249,0.221 0.857,0.691 1.66,0.718 0.636,0 1.162,-0.248 1.577,-0.58 1.743,-1.242 2.601,-3.534 4.317,-6.102 0.304,-0.442 1.383,-2.071 3.127,-3.894 1.079,-1.16 2.075,-2.016 2.795,-2.596 0.968,-0.221 2.407,-0.552 4.123,-1.049 6.668,-1.905 11.483,-4.197 15.523,-6.13 2.352,-1.133 5.009,-2.624 10.294,-5.579 4.593,-2.568 6.973,-4.004 9.076,-6.82 0.221,-0.304 1.356,-1.823 2.352,-4.06 0.304,-0.69 1.384,-3.148 1.965,-7.455 0.276,-1.906 0.276,-2.955 0.304,-8.92 0.055,-7.594 0.055,-6.683 0.055,-7.456 -0.027,-11.128 -0.608,-10.134 -0.802,-20.352 -0.028,-0.966 -0.055,-3.589 -0.858,-6.903 -0.858,-3.59 -1.937,-5.192 -2.546,-5.992 -0.774,-1.022 -1.715,-2.237 -3.32,-2.928 -2.933,-1.297 -6.835,-0.248 -8.855,1.989 z"></path>
    <path style="opacity:0.25;fill:#9b9797" id="path168" d="m 308.068,358.52 c 0.665,2.181 1.467,5.329 2.02,9.14 0.665,4.612 0.914,9.693 -0.581,22.975 -1.245,11.101 -1.854,16.652 -3.459,21.843 -2.296,7.401 -3.957,12.786 -9.02,17.038 -3.266,2.734 -6.835,4.004 -14.002,6.517 -5.258,1.85 -9.768,2.955 -12.867,3.645 -2.214,2.983 -5.507,6.766 -10.183,10.356 -3.653,2.816 -7.167,4.749 -10.072,6.075 0.415,0.276 2.13,1.381 4.455,1.077 2.711,-0.359 4.178,-2.292 4.427,-2.651 0.526,0.387 1.301,0.801 2.158,0.663 1.771,-0.276 2.712,-2.789 3.183,-3.922 1.023,-2.347 3.071,-5.578 7.664,-9.112 3.044,-0.801 7.167,-2.016 11.954,-3.839 6.669,-2.568 11.152,-5.053 15.967,-7.732 7.72,-4.308 9.463,-6.075 10.736,-7.787 2.325,-3.12 3.293,-6.324 3.708,-7.732 0.747,-2.513 0.886,-5.33 1.162,-10.825 0.194,-4.087 0.194,-7.235 0.194,-9.61 0,-4.087 -0.083,-7.124 -0.166,-9.747 -0.111,-3.811 -0.332,-8.285 -0.886,-13.642 -0.415,-3.894 -0.719,-5.44 -1.604,-7.18 -1.356,-2.761 -3.376,-4.528 -4.788,-5.55 z"></path>
    <path style="fill:#000000" id="path170" d="m 298.771,360.425 c -1.439,3.59 -1.605,7.456 -1.522,11.294 0.083,4.225 0.304,8.423 0.498,12.648 0.388,8.56 0.664,17.148 -0.36,25.681 -0.055,0.525 0.775,0.525 0.831,0 0.996,-8.339 0.774,-16.762 0.387,-25.129 -0.194,-4.142 -0.415,-8.284 -0.526,-12.454 -0.111,-4.004 -0.028,-8.036 1.494,-11.819 0.194,-0.497 -0.608,-0.718 -0.802,-0.221 z"></path>
    <path style="fill:#000000" id="path172" d="m 298.992,409.33 c -2.545,1.409 -4.593,3.452 -6.558,5.578 -2.13,2.292 -4.261,4.529 -6.641,6.573 -4.87,4.225 -10.349,7.704 -16.215,10.41 -0.498,0.221 -0.056,0.939 0.415,0.718 5.645,-2.596 10.93,-5.909 15.662,-9.913 2.352,-1.961 4.51,-4.115 6.586,-6.352 2.158,-2.347 4.316,-4.722 7.139,-6.268 0.498,-0.304 0.083,-1.022 -0.388,-0.746 z"></path>
    <path style="fill:#000000" id="path174" d="m 269.771,431.946 c -3.043,-0.635 -6.115,-1.298 -9.159,-1.988 -1.522,-0.331 -3.071,-0.745 -4.621,-1.022 -0.968,-0.165 -1.992,-0.248 -2.85,0.304 -1.328,0.856 -1.328,2.43 -0.138,3.369 0.858,0.69 1.964,0.994 2.988,1.326 1.661,0.524 3.072,1.187 4.151,2.595 0.332,0.415 1.051,0 0.719,-0.414 -0.968,-1.243 -2.13,-2.126 -3.625,-2.651 -1.023,-0.359 -2.158,-0.58 -3.099,-1.104 -0.664,-0.359 -1.522,-0.912 -1.024,-1.906 0.471,-0.939 1.661,-0.856 2.519,-0.718 2.296,0.332 4.593,0.994 6.89,1.519 2.352,0.525 4.704,1.022 7.056,1.519 0.498,0.083 0.719,-0.718 0.193,-0.829 z"></path>
    <path style="fill:#000000" id="path176" d="m 259.478,436.669 c -1.218,2.236 -2.463,4.445 -3.68,6.682 -0.609,1.077 -1.135,2.237 -1.854,3.286 -0.748,1.077 -1.744,1.63 -2.906,2.182 -2.186,1.022 -4.538,1.85 -6.641,3.037 -0.941,0.553 -1.55,1.547 -0.747,2.513 0.996,1.188 2.961,0.718 4.289,0.497 1.826,-0.303 3.569,-0.911 5.23,-1.684 3.459,-1.657 6.392,-4.253 8.495,-7.456 0.304,-0.442 -0.415,-0.856 -0.72,-0.414 -1.854,2.872 -4.427,5.191 -7.443,6.793 -1.439,0.746 -2.989,1.353 -4.566,1.712 -0.885,0.221 -1.826,0.414 -2.767,0.442 -0.858,0.055 -1.079,0.166 -1.494,-0.69 -0.526,-0.498 -0.471,-0.829 0.138,-0.995 0.194,-0.082 0.36,-0.165 0.553,-0.248 1.771,-0.829 3.57,-1.629 5.341,-2.458 1.384,-0.635 2.739,-1.187 3.68,-2.43 1.107,-1.463 1.882,-3.203 2.767,-4.805 1.024,-1.85 2.048,-3.7 3.044,-5.523 0.249,-0.497 -0.47,-0.911 -0.719,-0.441 z"></path>
    <path style="fill:#000000" id="path178" d="m 272.124,442.716 c 7.388,-2.071 14.555,-4.832 21.417,-8.257 3.404,-1.712 6.724,-3.562 9.962,-5.605 2.905,-1.823 5.977,-3.673 8.052,-6.462 0.304,-0.442 -0.415,-0.856 -0.719,-0.414 -2.159,2.927 -5.535,4.832 -8.578,6.71 -3.1,1.905 -6.31,3.673 -9.575,5.302 -6.668,3.286 -13.614,5.937 -20.781,7.953 -0.498,0.11 -0.277,0.911 0.222,0.773 z"></path>
    <path style="fill:#000000" id="path180" d="m 299.324,361.171 c 2.297,-4.501 8.191,-3.48 11.096,-0.276 3.487,3.866 3.653,9.527 4.04,14.442 0.831,10.742 0.997,21.567 0.333,32.309 -0.333,5.219 -1.107,10.742 -4.594,14.884 -0.332,0.414 0.249,0.994 0.581,0.58 3.127,-3.756 4.206,-8.505 4.649,-13.255 0.581,-6.075 0.581,-12.233 0.526,-18.336 -0.056,-6.379 -0.36,-12.785 -0.941,-19.137 -0.443,-4.777 -1.301,-10.051 -5.258,-13.227 -3.376,-2.706 -9.02,-2.623 -11.179,1.602 -0.221,0.469 0.498,0.883 0.747,0.414 z"></path>
    <path style="fill:#000000" id="path182" d="m 247.192,455.336 c 2.02,0.911 4.455,2.292 6.752,2.292 2.213,-0.028 3.846,-1.85 5.34,-3.231 4.289,-3.977 8.578,-7.953 12.867,-11.902 0.388,-0.359 -0.193,-0.939 -0.581,-0.58 -3.625,3.369 -7.25,6.71 -10.875,10.079 -1.605,1.464 -3.265,3.563 -5.285,4.474 -2.38,1.077 -5.645,-0.856 -7.775,-1.823 -0.499,-0.248 -0.914,0.47 -0.443,0.691 z"></path>
    <path style="fill:#000000" id="path184" d="m 258.454,454.756 c 0.913,1.712 2.933,1.022 3.957,-0.166 2.02,-2.375 3.597,-5.246 5.313,-7.815 0.304,-0.441 -0.415,-0.856 -0.72,-0.414 -1.079,1.602 -2.158,3.204 -3.237,4.805 -0.609,0.884 -3.293,5.661 -4.594,3.176 -0.249,-0.47 -0.968,-0.055 -0.719,0.414 z"></path>
    <path style="fill:#000000" id="path186" d="m 252.034,453.403 c 0.83,0.442 1.854,0.884 2.767,0.442 0.471,-0.249 0.665,-0.635 0.886,-1.077 0.387,-0.746 0.775,-1.326 1.494,-1.795 0.443,-0.304 0.028,-1.022 -0.415,-0.718 -0.664,0.442 -1.217,0.994 -1.605,1.712 -0.277,0.525 -0.443,1.16 -1.162,1.215 -0.526,0.055 -1.107,-0.276 -1.55,-0.497 -0.442,-0.221 -0.885,0.469 -0.415,0.718 z"></path>
    <path style="fill:#ffffff" id="path188" d="m 246.362,295.614 c -0.969,1.961 -1.937,5.247 -2.242,6.324 -0.442,1.546 -1.439,5.164 -1.992,9.969 -0.304,2.651 -0.636,5.55 -0.36,9.389 0.139,1.822 0.332,4.694 1.411,8.256 0.72,2.43 1.771,5.937 4.622,9.527 2.49,3.121 5.34,5.081 7.609,6.269 1.439,0.027 3.182,-0.055 5.119,-0.414 3.487,-0.663 6.199,-1.961 8.025,-3.01 0.249,1.408 0.581,2.899 0.996,4.445 0.858,3.204 1.909,6.02 2.961,8.45 1.134,-0.193 2.49,-0.524 3.929,-1.187 4.566,-2.126 6.752,-6.047 7.527,-7.677 -0.415,-1.601 -0.747,-3.341 -1.052,-5.136 -1.051,-6.71 -0.774,-12.703 -0.11,-17.563 0.581,0.194 1.522,0.442 2.684,0.387 2.269,-0.138 3.818,-1.381 4.593,-2.044 0.664,-0.552 3.68,-3.231 3.57,-7.207 -0.028,-0.939 -0.083,-3.231 -1.716,-4.474 -1.522,-1.132 -3.569,-0.717 -5.064,-0.414 -1.715,0.359 -2.988,1.077 -3.763,1.574 0.581,-1.905 1.799,-6.793 0,-12.481 -0.387,-1.215 -2.961,-8.947 -10.543,-12.289 -10.293,-4.584 -22.662,2.209 -26.204,9.306 z"></path>
    <path style="opacity:0.23999999;fill:#9b9797" id="path190" d="m 277.63,295.78 c 0.221,2.568 0.388,6.296 0,10.714 -1.19,13.393 -6.503,22.699 -7.886,25.019 -2.103,3.535 -5.7,8.671 -11.456,13.724 1.716,-0.221 3.68,-0.607 5.783,-1.353 5.784,-2.043 9.657,-5.55 11.76,-7.842 0.167,3.065 0.692,6.793 1.937,10.88 0.554,1.74 1.163,3.341 1.799,4.777 1.467,-1.905 2.906,-3.811 4.372,-5.744 -0.304,-1.795 -0.581,-3.7 -0.775,-5.661 -0.636,-5.937 -0.636,-11.404 -0.304,-16.264 1.245,0.027 3.044,-0.083 4.953,-0.829 8.357,-3.314 13.116,-16.486 8.606,-23.665 -0.194,-0.304 -1.19,-1.851 -3.238,-3.231 -6.336,-4.253 -14.389,-1.022 -15.551,-0.525 z"></path>
    <path style="fill:#0a3871" id="path192" d="m 244.342,301.11 c -0.554,-1.906 -1.329,-5.551 -0.526,-10.024 0.249,-1.381 1.107,-5.827 4.151,-9.334 4.455,-5.109 10.044,-4.142 17.294,-6.738 4.593,-1.629 10.902,-5.053 17.295,-13.117 -0.582,2.983 -1.163,5.992 -1.744,8.975 0.996,0.276 4.345,0.994 7.776,-0.691 5.7,-2.789 6.198,-9.526 6.226,-9.83 0.692,1.546 1.937,4.97 1.383,9.333 -0.387,2.983 -1.466,5.22 -2.241,6.573 0.332,0.359 2.103,2.181 4.151,1.905 2.49,-0.331 4.815,-3.728 4.15,-8.119 0.554,1.63 1.218,4.308 1.052,7.594 -0.221,4.004 -1.55,7.014 -2.435,8.644 0.221,0.193 1.632,1.463 3.625,1.215 1.743,-0.221 3.237,-1.491 3.818,-3.286 -0.138,1.85 -0.47,4.528 -1.549,7.594 -1.467,4.142 -2.684,4.473 -3.293,7.428 -0.969,4.639 1.522,6.213 0.858,10.355 -0.554,3.48 -2.823,5.661 -5.7,8.45 -5.23,5.054 -11.235,7.787 -16.271,9.306 0.221,-1.546 0.47,-3.093 0.692,-4.639 0.636,0.387 1.743,0.911 3.126,0.856 2.823,-0.11 4.594,-2.623 5.535,-3.976 1.079,-1.519 2.878,-4.115 1.909,-6.904 -0.802,-2.264 -2.933,-3.203 -3.127,-3.286 -2.49,-1.049 -5.7,-0.111 -7.775,2.43 -1.163,-4.556 -2.297,-9.085 -3.459,-13.642 -3.93,-2.485 -7.831,-4.943 -11.761,-7.428 -1.937,-0.359 -7.222,-1.077 -13.143,1.547 -5.977,2.651 -9.021,7.152 -10.017,8.809 z"></path>
    <path style="fill:#000000" id="path194" d="m 243.927,300.999 c -2.352,8.782 -3.764,18.115 -1.605,27.09 1.771,7.29 6.253,15.602 13.891,17.977 0.498,0.166 0.719,-0.635 0.221,-0.801 -7.665,-2.375 -11.954,-11.018 -13.531,-18.308 -1.854,-8.561 -0.443,-17.397 1.798,-25.737 0.166,-0.497 -0.636,-0.718 -0.774,-0.221 z"></path>
    <path style="fill:#000000" id="path196" d="m 256.821,345.928 c 12.757,-1.298 23.41,-10.494 26.399,-22.975 0.11,-0.525 -0.664,-0.746 -0.803,-0.221 -2.905,12.067 -13.171,21.097 -25.596,22.367 -0.525,0.055 -0.553,0.884 0,0.829 z"></path>
    <path style="fill:#000000" id="path198" d="m 282.5,323.173 c 5.701,3.48 11.262,-3.81 11.622,-8.919 0.194,-2.706 -1.051,-4.777 -3.735,-5.551 -2.491,-0.718 -5.203,0.028 -6.974,1.906 -0.359,0.386 0.222,0.966 0.582,0.58 1.466,-1.574 3.68,-2.265 5.81,-1.795 1.107,0.248 2.325,0.856 2.961,1.85 0.692,1.077 0.609,2.568 0.443,3.756 -0.664,4.28 -5.424,10.41 -10.294,7.428 -0.442,-0.249 -0.885,0.469 -0.415,0.745 z"></path>
    <path style="fill:#000000" id="path200" d="m 282.445,323.118 c -1.079,7.649 -0.692,15.409 1.134,22.92 0.139,0.525 0.941,0.304 0.803,-0.221 -1.799,-7.373 -2.186,-14.994 -1.135,-22.478 0.056,-0.525 -0.747,-0.745 -0.802,-0.221 z"></path>
    <path style="fill:#000000" id="path202" d="m 268.139,342.034 c 0.858,4.474 2.186,8.809 4.012,13.006 0.222,0.497 0.941,0.056 0.72,-0.414 -1.799,-4.114 -3.099,-8.395 -3.93,-12.813 -0.11,-0.525 -0.885,-0.304 -0.802,0.221 z"></path>
    <path style="fill:#000000" id="path204" d="m 272.732,355.151 c 5.341,-0.856 9.851,-4.529 11.871,-9.527 0.194,-0.497 -0.608,-0.718 -0.802,-0.221 -1.909,4.75 -6.254,8.146 -11.29,8.947 -0.526,0.083 -0.304,0.884 0.221,0.801 z"></path>
    <path style="fill:#000000" id="path206" d="m 268.803,343 c 1.135,0.056 1.909,-0.718 2.767,-1.38 1.135,-0.884 2.214,-1.823 3.21,-2.817 1.854,-1.85 3.348,-3.976 4.317,-6.406 0.193,-0.498 -0.609,-0.718 -0.803,-0.221 -0.858,2.154 -2.186,4.059 -3.791,5.716 -0.719,0.773 -1.494,1.463 -2.296,2.154 -0.886,0.745 -2.159,2.181 -3.404,2.126 -0.526,-0.028 -0.526,0.801 0,0.828 z"></path>
    <path style="fill:#000000" id="path208" d="m 268.858,342.559 c 2.352,-1.519 4.538,-3.259 6.586,-5.164 0.387,-0.359 -0.194,-0.966 -0.581,-0.58 -1.992,1.878 -4.123,3.562 -6.42,5.054 -0.47,0.248 -0.027,0.966 0.415,0.69 z"></path>
    <path style="fill:#000000" id="path210" d="m 252.588,302.601 c -1.55,7.041 -2.435,14.194 -2.629,21.401 0,0.414 0.553,0.552 0.775,0.221 1.079,-1.712 2.158,-3.452 3.237,-5.164 0.277,-0.442 -0.442,-0.884 -0.719,-0.414 -1.079,1.712 -2.158,3.452 -3.238,5.164 0.249,0.082 0.526,0.138 0.775,0.221 0.194,-7.125 1.079,-14.222 2.601,-21.181 0.111,-0.552 -0.692,-0.773 -0.802,-0.248 z"></path>
    <path style="fill:#000000" id="path212" d="m 253.695,334.385 c -0.665,-1.243 -1.107,-2.568 -1.218,-3.977 -0.083,-0.994 0.138,-5.025 2.02,-3.424 0.996,0.856 0.858,2.734 0.885,3.977 0,0.58 0,1.187 -0.055,1.767 -0.028,0.414 -0.083,0.828 -0.166,1.215 -0.719,0.497 -1.273,0.47 -1.632,-0.055 -0.36,-0.387 -0.969,0.193 -0.582,0.58 1.19,1.215 2.74,1.27 3.072,-0.635 0.249,-1.353 0.249,-2.789 0.138,-4.143 -0.083,-1.077 -0.083,-2.623 -0.885,-3.451 -1.19,-1.215 -2.878,-0.083 -3.348,1.215 -0.858,2.319 -0.028,5.246 1.079,7.345 0.221,0.47 0.941,0.055 0.692,-0.414 z"></path>
    <path style="fill:#000000" id="path214" d="m 259.422,309.532 c 0.831,3.894 5.95,4.197 7.472,0.607 0.193,-0.497 -0.609,-0.718 -0.803,-0.22 -1.245,2.927 -5.23,2.374 -5.866,-0.608 -0.111,-0.497 -0.913,-0.304 -0.803,0.221 z"></path>
    <path style="fill:#000000" id="path216" d="m 257.79,299.95 c 1.051,-2.347 3.763,-3.48 6.254,-2.955 2.573,0.552 4.538,2.541 5.811,4.722 0.276,0.47 0.996,0.055 0.719,-0.414 -1.467,-2.513 -3.791,-4.75 -6.779,-5.192 -2.685,-0.386 -5.562,0.884 -6.725,3.397 -0.221,0.525 0.499,0.939 0.72,0.442 z"></path>
    <path style="fill:#000000" id="path218" d="m 241.575,300.861 c 0.747,-1.546 2.047,-3.231 3.957,-3.203 1.826,0.027 3.154,1.629 4.067,3.037 0.277,0.442 0.996,0.028 0.72,-0.414 -1.052,-1.684 -2.629,-3.424 -4.787,-3.452 -2.214,-0.027 -3.764,1.795 -4.649,3.618 -0.249,0.469 0.47,0.884 0.692,0.414 z"></path>
    <path style="fill:#000000" id="path220" d="m 246.472,313.37 c 0.489,0 0.886,-1.817 0.886,-4.059 0,-2.242 -0.397,-4.059 -0.886,-4.059 -0.489,0 -0.885,1.817 -0.885,4.059 0,2.242 0.396,4.059 0.885,4.059 z"></path>
    <path style="fill:#ffffff" id="path222" d="m 249.018,357.056 c -0.083,1.022 -0.194,2.43 -0.249,4.06 -0.249,5.578 -0.028,9.803 0.055,10.935 0.222,3.673 0.72,8.478 1.882,14.056 -1.107,1.27 -2.767,3.148 -4.898,5.357 -4.04,4.225 -6.115,6.379 -9.436,8.616 -3.708,2.485 -6.281,3.258 -7.665,3.617 -1.743,0.414 -3.403,0.801 -5.423,0.359 -3.293,-0.746 -5.258,-3.176 -5.977,-4.115 -1.826,-2.319 -2.241,-4.584 -2.989,-9.002 -0.553,-3.231 -0.664,-5.688 -0.83,-10.438 -0.083,-2.264 -0.193,-5.026 -0.138,-8.726 0.055,-4.17 0.277,-9.113 0.885,-14.636 0.277,-2.485 0.664,-5.55 1.273,-9.03 -0.47,-0.662 -0.968,-1.325 -1.494,-2.016 -0.553,-0.718 -1.079,-1.408 -1.633,-2.098 -1.411,1.187 -2.794,2.402 -4.206,3.59 -0.359,0.138 -0.996,0.359 -1.771,0.276 -1.466,-0.138 -2.324,-1.16 -2.628,-1.491 -1.356,-1.547 -1.163,-3.507 -1.107,-3.894 1.909,-2.071 3.818,-4.115 5.755,-6.186 0.028,-1.187 0.194,-2.733 0.665,-4.446 0.359,-1.27 0.802,-2.319 1.217,-3.203 0.36,-0.718 0.858,-1.519 1.494,-2.319 1.135,-1.492 2.352,-2.541 3.349,-3.259 -0.803,0.359 -0.997,0.359 -1.052,0.304 -0.138,-0.221 1.162,-1.85 2.989,-2.016 1.023,-0.11 1.826,0.276 2.379,0.525 0.858,0.414 1.439,0.939 1.799,1.325 1.715,-1.463 3.431,-2.927 5.147,-4.363 0.608,0.359 1.217,0.773 1.826,1.187 1.411,0.967 2.684,1.933 3.819,2.872 -0.415,0.525 -0.941,1.105 -1.605,1.685 -1.107,0.966 -2.214,1.546 -3.072,1.933 0.526,0.166 1.467,0.552 1.937,1.463 0.471,0.884 0.277,1.851 0,3.066 -0.194,0.828 -0.443,1.491 -0.636,1.933 0.11,1.159 0.166,2.733 -0.166,4.501 -0.526,2.899 -1.744,5.053 -2.574,6.296 -0.027,1.077 -0.055,2.761 0,4.832 0.222,8.533 1.467,13.531 2.269,19.827 0.471,3.59 0.941,8.92 0.803,15.63 0.636,-0.414 1.549,-1.077 2.573,-1.933 2.601,-2.181 4.262,-4.363 6.448,-7.566 2.158,-3.121 3.569,-5.44 5.479,-8.533 1.189,-2.016 3.099,-5.081 5.506,-8.975 z"></path>
    <path style="opacity:0.23999999;fill:#9b9797" id="path224" d="m 223.865,331.844 c -0.581,1.271 -1.162,2.568 -1.743,3.894 -1.688,3.976 -3.072,7.787 -4.206,11.432 -0.249,5.744 -0.388,10.549 -0.498,14.028 -0.139,5.275 0.193,11.571 0.802,24.163 0.249,5.192 0.47,8.34 2.906,10.632 2.545,2.374 6.087,2.43 8.079,2.43 10.626,-0.028 18.568,-9.058 20.754,-11.681 -2.961,5.026 -6.337,8.312 -8.634,10.245 -2.601,2.181 -5.949,4.915 -11.151,6.268 -4.4,1.16 -6.392,0.911 -6.918,0.801 -3.791,-0.911 -5.894,-4.059 -6.641,-5.136 -1.799,-2.679 -2.38,-5.468 -2.712,-11.46 -0.332,-6.158 0.028,-7.788 0.139,-16.265 0.083,-8.091 -0.222,-10.383 0.387,-15.989 0.36,-3.286 0.803,-5.992 1.162,-7.815 -1.079,-1.132 -2.158,-2.264 -3.237,-3.369 -0.913,0.801 -1.854,1.574 -2.795,2.375 -0.609,0.525 -1.245,1.049 -1.854,1.547 -0.553,0.055 -1.356,0.027 -2.214,-0.332 -2.213,-0.939 -3.597,-3.673 -2.905,-4.611 0.443,-0.636 1.605,-0.139 3.21,-0.139 2.767,0.028 4.621,-1.38 8.301,-4.031 2.601,-1.906 5.59,-4.032 9.768,-6.987 z"></path>
    <path style="fill:#000000" id="path226" d="m 248.658,356.835 c -6.392,8.809 -11.123,18.916 -19.203,26.427 -0.388,0.359 0.193,0.939 0.581,0.58 8.135,-7.566 12.894,-17.728 19.342,-26.592 0.332,-0.415 -0.388,-0.829 -0.72,-0.415 z"></path>
    <path style="fill:#000000" id="path228" d="m 224.861,404.691 c 10.958,-0.718 18.817,-9.886 25.402,-17.673 0.332,-0.414 -0.249,-0.994 -0.581,-0.58 -6.392,7.622 -14.14,16.734 -24.793,17.452 -0.554,0 -0.554,0.829 -0.028,0.801 z"></path>
    <path style="fill:#000000" id="path230" d="m 219.659,326.901 c 0.055,2.182 1.494,4.06 3.597,4.667 0.526,0.138 0.747,-0.662 0.222,-0.801 -1.744,-0.497 -2.934,-2.071 -2.989,-3.866 -0.028,-0.524 -0.858,-0.524 -0.83,0 z"></path>
    <path style="fill:#000000" id="path232" d="m 220.517,326.653 c 0.276,-2.403 4.565,-0.663 5.728,-0.055 1.134,0.58 2.269,1.159 2.518,2.54 0.193,1.05 -0.139,2.154 -0.415,3.176 -0.139,0.525 0.664,0.745 0.802,0.221 0.388,-1.381 0.803,-2.955 0.222,-4.308 -0.554,-1.381 -2.076,-2.016 -3.321,-2.623 -1.273,-0.608 -2.656,-1.05 -4.095,-0.884 -0.581,0.083 -1.329,0.221 -1.799,0.607 -0.498,0.387 -0.387,0.663 -0.47,1.354 -0.056,0.497 0.774,0.497 0.83,-0.028 z"></path>
    <path style="fill:#000000" id="path234" d="m 228.071,332.148 c -0.083,2.099 0.387,4.142 -0.111,6.241 -0.47,1.933 -1.411,3.728 -2.352,5.468 -0.249,0.469 0.471,0.883 0.72,0.414 0.968,-1.823 1.937,-3.673 2.435,-5.661 0.526,-2.154 0.055,-4.28 0.138,-6.462 0.028,-0.552 -0.802,-0.552 -0.83,0 z"></path>
    <path style="fill:#000000" id="path236" d="m 225.608,343.884 c -0.636,14.553 3.542,28.802 2.878,43.355 -0.028,0.524 0.802,0.524 0.83,0 0.664,-14.553 -3.514,-28.802 -2.878,-43.355 0.028,-0.525 -0.802,-0.525 -0.83,0 z"></path>
    <path style="fill:#000000" id="path238" d="m 212.022,344.188 c 0.83,1.16 1.715,2.264 2.711,3.286 0.36,0.387 0.941,-0.193 0.582,-0.58 -0.941,-0.994 -1.799,-2.016 -2.574,-3.12 -0.332,-0.442 -1.051,-0.028 -0.719,0.414 z"></path>
    <path style="fill:#000000" id="path240" d="m 215.204,347.253 c -1.577,8.975 -2.352,18.088 -2.325,27.2 0.028,4.529 0.25,9.085 0.692,13.587 0.36,3.838 0.803,7.87 2.823,11.239 1.826,3.065 5.036,5.384 8.689,5.302 0.525,-0.028 0.525,-0.856 0,-0.829 -5.12,0.138 -8.413,-4.418 -9.602,-8.892 -1.329,-4.915 -1.439,-10.272 -1.633,-15.326 -0.415,-10.714 0.332,-21.484 2.186,-32.032 0.055,-0.553 -0.747,-0.774 -0.83,-0.249 z"></path>
    <path style="fill:#000000" id="path242" d="m 209.974,334.854 c -2.601,2.182 -5.119,4.474 -7.499,6.876 -0.387,0.387 0.221,0.967 0.581,0.58 2.408,-2.402 4.898,-4.694 7.499,-6.876 0.415,-0.331 -0.166,-0.911 -0.581,-0.58 z"></path>
    <path style="fill:#000000" id="path244" d="m 202.226,342.476 c -0.415,3.203 2.02,5.909 5.258,5.882 0.525,0 0.525,-0.829 0,-0.829 -2.795,0.028 -4.788,-2.319 -4.428,-5.053 0.083,-0.525 -0.747,-0.525 -0.83,0 z"></path>
    <path style="fill:#000000" id="path246" d="m 203.001,342.283 c 2.905,0.082 4.925,2.678 4.317,5.495 -0.111,0.525 0.691,0.746 0.802,0.221 0.747,-3.397 -1.633,-6.434 -5.119,-6.545 -0.526,0 -0.526,0.829 0,0.829 z"></path>
    <path style="fill:#000000" id="path248" d="m 208.452,347.861 c 3.155,-2.872 6.364,-5.716 9.436,-8.671 1.411,-1.353 2.767,-2.734 4.04,-4.225 0.692,-0.801 2.435,-2.375 2.463,-3.48 0,-0.138 -0.083,-0.303 -0.194,-0.359 -0.055,-0.027 -0.111,-0.055 -0.138,-0.055 -0.166,-0.083 -0.388,-0.083 -0.498,0.055 -0.028,0.028 -0.056,0.056 -0.083,0.111 -0.332,0.414 0.249,0.994 0.581,0.58 0.027,-0.028 0.055,-0.055 0.083,-0.111 -0.166,0.028 -0.332,0.056 -0.498,0.056 -0.056,-0.249 -0.139,-0.249 -0.249,0.027 -0.139,0.193 -0.277,0.387 -0.443,0.58 -0.332,0.414 -0.637,0.828 -0.996,1.243 -0.554,0.69 -1.163,1.353 -1.744,2.016 -1.217,1.325 -2.49,2.568 -3.791,3.783 -2.822,2.651 -5.7,5.219 -8.55,7.842 -0.415,0.387 0.194,0.967 0.581,0.608 z"></path>
    <path style="fill:#000000" id="path250" d="m 208.812,336.401 c 0.194,-1.326 0.387,-2.651 0.581,-3.977 0.138,-0.994 0.249,-2.098 0.802,-2.982 1.273,-2.044 3.072,-0.58 4.04,0.801 0.415,0.58 0.803,1.215 1.218,1.795 0.221,0.331 1.3,1.518 1.162,1.933 0.138,-0.111 0.277,-0.194 0.388,-0.304 -0.056,0 -0.083,0 -0.139,0 -0.526,-0.028 -0.526,0.801 0,0.828 0.056,0 0.083,0 0.139,0 0.193,0 0.359,-0.138 0.387,-0.303 0.194,-0.691 -0.277,-1.105 -0.637,-1.657 -0.691,-1.022 -1.355,-2.071 -2.075,-3.065 -0.747,-1.022 -1.715,-2.016 -3.099,-1.878 -1.328,0.138 -2.131,1.16 -2.546,2.347 -0.692,1.961 -0.747,4.197 -1.051,6.241 -0.056,0.524 0.747,0.745 0.83,0.221 z"></path>
    <path style="fill:#000000" id="path252" d="m 210.112,333.28 c 0.748,1.464 1.993,2.955 3.764,3.066 1.466,0.11 2.85,-0.718 3.237,-2.154 0.139,-0.525 -0.664,-0.746 -0.802,-0.221 -0.36,1.325 -1.827,1.822 -3.044,1.408 -1.162,-0.414 -1.909,-1.436 -2.435,-2.485 -0.249,-0.497 -0.969,-0.083 -0.72,0.386 z"></path>
    <path style="fill:#000000" id="path254" d="m 211.136,327.896 c 0.139,-1.353 1.688,-1.712 2.74,-1.353 1.107,0.358 1.964,1.353 2.739,2.153 0.609,0.636 1.799,1.519 1.965,2.403 0.221,1.187 -1.273,1.988 -2.269,2.292 -0.498,0.138 -0.305,0.939 0.221,0.801 1.218,-0.359 2.989,-1.436 3.182,-2.872 0.083,-0.58 -0.276,-0.884 -0.664,-1.298 -0.775,-0.829 -1.522,-1.629 -2.324,-2.43 -1.079,-1.105 -2.463,-2.292 -4.123,-2.016 -1.245,0.193 -2.159,1.022 -2.297,2.292 -0.055,0.552 0.775,0.552 0.83,0.028 z"></path>
    <path style="fill:#000000" id="path256" d="m 212.63,325.852 c 0.388,-0.442 0.582,-1.022 0.941,-1.463 0.886,-1.105 2.269,-0.083 3.182,0.579 1.771,1.243 3.653,3.507 2.048,5.661 -0.304,0.442 0.415,0.856 0.72,0.415 1.715,-2.32 0.027,-4.999 -1.937,-6.49 -0.914,-0.69 -2.297,-1.933 -3.542,-1.574 -1.107,0.304 -1.301,1.574 -1.993,2.32 -0.359,0.359 0.222,0.939 0.581,0.552 z"></path>
    <path style="fill:#000000" id="path258" d="m 215.425,323.339 c 0.969,-1.187 2.242,-2.43 3.736,-1.187 0.996,0.801 1.632,1.933 1.992,3.12 0.166,0.497 0.941,0.304 0.803,-0.221 -0.471,-1.601 -1.55,-3.452 -3.155,-4.114 -1.632,-0.663 -2.988,0.635 -3.957,1.822 -0.332,0.387 0.249,0.994 0.581,0.58 z"></path>
    <path style="fill:#000000" id="path260" d="m 221.541,323.45 c 1.715,-1.464 3.431,-2.928 5.146,-4.363 0.415,-0.359 -0.193,-0.939 -0.581,-0.58 -1.715,1.463 -3.431,2.927 -5.147,4.363 -0.415,0.359 0.194,0.939 0.582,0.58 z"></path>
    <path style="fill:#000000" id="path262" d="m 227.656,326.984 c 1.633,-1.187 3.21,-2.457 4.676,-3.838 0.388,-0.359 -0.193,-0.939 -0.581,-0.58 -1.439,1.325 -2.933,2.568 -4.51,3.7 -0.443,0.304 -0.028,1.022 0.415,0.718 z"></path>
    <path style="stroke:#000000;stroke-width:3;stroke-miterlimit:10" id="path264" stroke-miterlimit="10" d="m 240.08,324.913 c 9.231,0 16.714,-7.467 16.714,-16.679 0,-9.211 -7.483,-16.679 -16.714,-16.679 -9.23,0 -16.713,7.468 -16.713,16.679 0,9.212 7.483,16.679 16.713,16.679 z"></path>
    <path style="fill:#000000" id="path266" d="m 229.953,310.278 c 6.143,-3.922 12.424,-7.622 18.844,-11.101 0.47,-0.249 0.055,-0.967 -0.415,-0.718 -6.42,3.451 -12.701,7.152 -18.844,11.101 -0.443,0.303 -0.028,1.021 0.415,0.718 z"></path>
    <path style="fill:#000000" id="path268" d="m 230.644,317.513 c 5.064,-3.701 10.183,-7.263 15.413,-10.742 0.443,-0.304 0.028,-1.022 -0.415,-0.718 -5.202,3.479 -10.349,7.069 -15.413,10.742 -0.442,0.303 -0.027,1.021 0.415,0.718 z"></path>
  </g>
  <defs id="defs270">
    <filter style="color-interpolation-filters:sRGB" filterUnits="userSpaceOnUse" height="992" width="448" y="0" x="0" id="filter0_d_0_1">
      <feFlood id="feFlood273" result="BackgroundImageFix" flood-opacity="0"></feFlood>
      <feColorMatrix id="feColorMatrix275" result="hardAlpha" values="0 0 0 0 0 0 0 0 0 0 0 0 0 0 0 0 0 0 127 0" type="matrix" in="SourceAlpha"></feColorMatrix>
      <feMorphology id="feMorphology277" result="effect1_dropShadow_0_1" in="SourceAlpha" operator="erode" radius="8"></feMorphology>
      <feOffset id="feOffset279" dy="24"></feOffset>
      <feGaussianBlur id="feGaussianBlur281" stdDeviation="16"></feGaussianBlur>
      <feComposite id="feComposite283" operator="out" in2="hardAlpha"></feComposite>
      <feColorMatrix id="feColorMatrix285" values="0 0 0 0 0 0 0 0 0 0 0 0 0 0 0 0 0 0 0.08 0" type="matrix"></feColorMatrix>
      <feBlend id="feBlend287" result="effect1_dropShadow_0_1" in2="BackgroundImageFix" mode="normal"></feBlend>
      <feBlend id="feBlend289" result="shape" in2="effect1_dropShadow_0_1" in="SourceGraphic" mode="normal"></feBlend>
    </filter>
    <clipPath id="clip0_0_1">
      <rect style="fill:#ffffff" y="0" x="0" id="rect292" transform="translate(56,243)" height="304" width="336"></rect>
    </clipPath>
  </defs>
</svg>
